<svg id="Camada_1" data-name="Camada 1" xmlns="http://www.w3.org/2000/svg" viewBox="0 0 499.15 215.05"><defs><style>.cls-1{fill:#2c2b26;}.cls-2{fill:#6e763f;}.cls-3{fill:#646253;}.cls-4{fill:#97c1bf;}.cls-5{fill:#4a483f;}.cls-6{fill:#868c4d;}.cls-7{fill:#807d6b;}.cls-8{fill:#b52e1b;}.cls-9{fill:#e7392d;}.cls-10{fill:#787565;}.cls-11{fill:#434139;}.cls-12{fill:#b7b29f;}.cls-13,.cls-14{fill:#969283;}.cls-14{opacity:0.4;}</style></defs><path class="cls-1" d="M89.79,400.78c.08,3.5-27.2,53.63-27.2,53.63l471.76,1.47-36.12-52.33L89.79,400.78Z" transform="translate(-47.76 -307.08)"/><path class="cls-2" d="M89.79,400.78s3.44-18.18,9.83-22.61S224,366.38,224,366.38s27-38.82,33.91-42.75,33.42-5.41,33.42-5.41l221.14-3.44s12.29-.49,13.27,3S536.5,422.4,536.5,422.4l-28,1-16.22-25.07L421,403.24,398.9,463.68l-187.72.5-30-61.43Z" transform="translate(-47.76 -307.08)"/><path class="cls-3" d="M541.91,415c-7.86-2-28.5-2-28.5-2s-6.26-18.68-13.76-18.68c-8.36,0-66.84,0-76.18,1.48s-27.1,51.71-29.66,59.05l-174.76,1.84s-29.5-54.51-39.32-57.95-90.92-3.44-97.8-.49-8.84,14.75-8.84,14.75,88.76-1.1,90.91,0c8.05,4.09,37.84,51.6,37.84,51.6l201.49-.49s22.8-49.24,30-50.62,53.57-2.95,57-1c12.31,7,32.92,46.69,36.36,50.13s16.71,1.48,19.17-.49S546.3,416.13,541.91,415Z" transform="translate(-47.76 -307.08)"/><path class="cls-4" d="M329.61,329.52c1.77,1.48-1.23,28.75-1.23,28.75s-2.95,14.74-6.51,16.1-80.72,3.31-81.7,1.35,25.06-46.69,28-46.2S326.6,327,329.61,329.52Z" transform="translate(-47.76 -307.08)"/><path class="cls-5" d="M271.42,332.07c2.59.43,45.77-1.83,58.22-.68a3.39,3.39,0,0,0-.48-1.87c-3-2.5-58.48.49-61.43,0s-29,44.23-28,46.2c.14.26,1.67.46,4.22.59C247.67,367.36,268.78,331.63,271.42,332.07Z" transform="translate(-47.76 -307.08)"/><path class="cls-4" d="M348.72,327.3c-2.35,2.09-5.73,43.5-4.54,45.8,1.41,2.73,62.09,1.63,65,.16S419.54,359.48,420,357s3.73-30.55,0-30.95C415.13,325.56,351.48,324.84,348.72,327.3Z" transform="translate(-47.76 -307.08)"/><path class="cls-5" d="M351.48,329.52c2.59-2.3,59-1,70-.47-.22-2.55-.55-2.87-1.45-3-4.9-.52-68.55-1.24-71.31,1.22-2.35,2.09-5.73,43.5-4.54,45.8.17.33,1.21.6,2.91.83C347.17,363.33,349.49,331.29,351.48,329.52Z" transform="translate(-47.76 -307.08)"/><path class="cls-4" d="M435.58,325.14c-3.77,2.51,1,41.79,2.46,43.76s79.61,2,81.09,0-3-43.25-4.43-44.72S438.53,323.17,435.58,325.14Z" transform="translate(-47.76 -307.08)"/><path class="cls-5" d="M437.73,327.31c2.59-1.73,62.92-.55,77.88.35-.46-2.81-.61-3.19-.91-3.48-1.47-1.47-76.17-1-79.12,1-3.77,2.51,1,41.79,2.46,43.76.18.23,1.42.44,3.49.61C439.68,358.52,434.68,329.34,437.73,327.31Z" transform="translate(-47.76 -307.08)"/><path class="cls-6" d="M98.64,389.47s1.31-7,6.55-8.35,117-8.84,117-8.84L216.6,386.5Z" transform="translate(-47.76 -307.08)"/><rect class="cls-6" x="163.58" y="75.03" width="311.89" height="4.59"/><polygon class="cls-7" points="351.96 153.66 158.34 153.66 169.81 151.03 345.08 151.03 351.96 153.66"/><polygon class="cls-7" points="127.54 96.65 32.53 96.65 38.16 94.03 124.17 94.03 127.54 96.65"/><polygon class="cls-7" points="455.16 94.69 372.6 94.69 377.49 92.06 452.23 92.06 455.16 94.69"/><polygon class="cls-6" points="214.03 16.66 473.84 13.25 468.27 9.83 237.4 13.76 214.03 16.66"/><polygon class="cls-6" points="193.06 66.41 272.51 65.2 276.45 62.25 281.85 22.45 283.65 22.45 279.23 65.2 275.95 69.47 191.59 69.47 193.06 66.41"/><polygon class="cls-6" points="296.42 66.02 361.46 66.18 372.11 50.5 372.27 19 374.04 19 374.04 51.93 364.25 69.47 294.96 69.79 296.42 66.02"/><polygon class="cls-6" points="389.97 62.25 467.45 62.25 469.74 59.96 464.83 17.2 467.61 17.2 473.84 61.43 471.35 65.69 391.93 64.87 389.97 62.25"/><rect class="cls-5" x="285.29" y="144.56" width="62.9" height="1.47"/><path class="cls-6" d="M334.8,369.27l-.34,0L333,381.91l.34.06a6.39,6.39,0,0,0,1.46-12.7Z" transform="translate(-47.76 -307.08)"/><path class="cls-6" d="M428,368.15l-.34,0,.84,12.72h.35a6.39,6.39,0,1,0-.85-12.75Z" transform="translate(-47.76 -307.08)"/><path class="cls-5" d="M241.65,453.62c-1.55,0-6.81-.34-9.48-4.79-3-5-4-11.78-4-12.07v-.09l-1-59.19.12-.19c3.18-5,31.17-49.36,35.13-51.83s68.7-3,76.06-3.06h.79l-.05.79c-.07,1.11-.62,6-1.38,12.81-1.82,16.18-4.86,43.26-4.52,47,.49,5.38.5,66.75.5,69.36v.73l-91.63.5Zm-12.05-17c.09.59,1.12,7,3.83,11.48,2.27,3.78,6.87,4.08,8.22,4.08h.48l90.18-.49c0-7.12,0-63.49-.48-68.49-.36-3.93,2.57-30.05,4.51-47.33.62-5.5,1.13-10,1.31-11.95-28.76.21-71.75,1.12-74.48,2.83S241,358.19,228.63,377.89Z" transform="translate(-47.76 -307.08)"/><path class="cls-5" d="M427.65,395.9l-2.15-50.11v0c.35-7.06.19-18.95-1.75-20.8-2.69-2.57-13.49-2.37-24.93-2.15-4.34.08-8.84.16-13.21.11-9.24-.11-46.75.94-47.13.95l0-1.47c.37,0,37.93-1.07,47.18-.95,4.36.05,8.84,0,13.17-.12,12.26-.23,22.85-.43,26,2.56s2.31,19.81,2.21,21.91l2.14,50Z" transform="translate(-47.76 -307.08)"/><path class="cls-8" d="M533.06,391.93s-13.1-.32-14.41-.32-3.28,1.31-3.28,2.95,1,12.12,1.31,13.43,2.3,2.62,4.59,2.62,13.76.33,13.76.33Z" transform="translate(-47.76 -307.08)"/><path class="cls-4" d="M95.36,383.09s-1,2.62-2.29,5.24-2,7.54-2,7.54l6.88-1s4.59-8.51,5.25-10.48S95.36,383.09,95.36,383.09Z" transform="translate(-47.76 -307.08)"/><polygon class="cls-9" points="470.81 86.6 471.98 101.13 476.68 101.13 475.5 86.45 470.81 86.6"/><circle class="cls-10" cx="136.5" cy="470.16" r="51.97" transform="translate(-373.61 2.09) rotate(-54.61)"/><path class="cls-11" d="M156.05,422.33c15.1,9.09,28.43,24.09,29.15,43,1,25.88-10.61,55.24-54.39,54.06a64.88,64.88,0,0,1-21.06-4.33c7.82,4.7,19.14,7,28.92,7,28.7,0,49.8-22.81,49.8-51.51A52,52,0,0,0,156.05,422.33Z" transform="translate(-47.76 -307.08)"/><circle class="cls-12" cx="136.5" cy="470.16" r="31.7" transform="translate(-65.78 -301.47) rotate(-2.21)"/><circle class="cls-13" cx="136.5" cy="470.16" r="29.12" transform="translate(-394.46 241.84) rotate(-83.07)"/><circle class="cls-10" cx="136.5" cy="470.16" r="20.64" transform="translate(-400.11 189.68) rotate(-76.92)"/><path class="cls-13" d="M139.49,483.89a3,3,0,0,1-3,3h0a3,3,0,0,1-3-3V456.44a3,3,0,0,1,3-3h0a3,3,0,0,1,3,3Z" transform="translate(-47.76 -307.08)"/><path class="cls-13" d="M150.23,466.88a3,3,0,0,1,3,3h0a3,3,0,0,1-3,3H122.78a3,3,0,0,1-3-3h0a3,3,0,0,1,3-3Z" transform="translate(-47.76 -307.08)"/><path class="cls-13" d="M148.42,477.87a3,3,0,0,1,0,4.22h0a3,3,0,0,1-4.22,0l-19.41-19.41a3,3,0,0,1,0-4.22h0a3,3,0,0,1,4.22,0Z" transform="translate(-47.76 -307.08)"/><path class="cls-13" d="M144,458.24a3,3,0,0,1,4.22,0h0a3,3,0,0,1,0,4.22L128.8,481.87a3,3,0,0,1-4.22,0h0a3,3,0,0,1,0-4.22Z" transform="translate(-47.76 -307.08)"/><circle class="cls-13" cx="88.74" cy="163.09" r="11.93"/><path class="cls-14" d="M89.45,467.62l4.42-3.44s.49-16.22,16.46-28.26c14.59-11,32.44-9.09,32.44-9.09l1.72-3.44s-22.36-2.71-37.84,9.82C88,448.31,89.45,467.62,89.45,467.62Z" transform="translate(-47.76 -307.08)"/><path class="cls-12" d="M137.92,456.07a1.42,1.42,0,1,1-1.42-1.42A1.42,1.42,0,0,1,137.92,456.07Z" transform="translate(-47.76 -307.08)"/><path class="cls-12" d="M147.74,460a1.41,1.41,0,1,1-1.41-1.42A1.41,1.41,0,0,1,147.74,460Z" transform="translate(-47.76 -307.08)"/><path class="cls-12" d="M152.41,470a1.41,1.41,0,1,1-1.41-1.41A1.41,1.41,0,0,1,152.41,470Z" transform="translate(-47.76 -307.08)"/><path class="cls-12" d="M148.24,480.64a1.42,1.42,0,1,1-1.42-1.42A1.42,1.42,0,0,1,148.24,480.64Z" transform="translate(-47.76 -307.08)"/><path class="cls-12" d="M137.79,484.32a1.41,1.41,0,1,1-1.41-1.41A1.42,1.42,0,0,1,137.79,484.32Z" transform="translate(-47.76 -307.08)"/><path class="cls-12" d="M128,480a1.41,1.41,0,1,1-1.41-1.41A1.42,1.42,0,0,1,128,480Z" transform="translate(-47.76 -307.08)"/><path class="cls-12" d="M124,470.07a1.41,1.41,0,1,1-1.41-1.41A1.41,1.41,0,0,1,124,470.07Z" transform="translate(-47.76 -307.08)"/><path class="cls-12" d="M128,460a1.41,1.41,0,1,1-1.41-1.42A1.41,1.41,0,0,1,128,460Z" transform="translate(-47.76 -307.08)"/><path class="cls-12" d="M143.05,470.16a6.55,6.55,0,1,1-6.55-6.55A6.56,6.56,0,0,1,143.05,470.16Z" transform="translate(-47.76 -307.08)"/><circle class="cls-10" cx="465.8" cy="470.16" r="51.97" transform="translate(-140.63 517.93) rotate(-77.69)"/><path class="cls-11" d="M485.34,422.33c15.11,9.09,28.43,24.09,29.15,43,1,25.88-10.6,55.24-54.38,54.06a64.88,64.88,0,0,1-21.06-4.33c7.81,4.7,19.13,7,28.92,7,28.7,0,49.79-22.81,49.79-51.51A52,52,0,0,0,485.34,422.33Z" transform="translate(-47.76 -307.08)"/><circle class="cls-12" cx="465.8" cy="470.16" r="31.7" transform="matrix(0.16, -0.99, 0.99, 0.16, -119.6, 549.05)"/><circle class="cls-13" cx="465.8" cy="470.16" r="29.12" transform="translate(-195.57 -84.92) rotate(-23.26)"/><circle class="cls-10" cx="465.8" cy="470.16" r="20.64" transform="translate(-194.59 -87.33) rotate(-23.03)"/><path class="cls-13" d="M468.78,483.89a3,3,0,0,1-3,3h0a3,3,0,0,1-3-3V456.44a3,3,0,0,1,3-3h0a3,3,0,0,1,3,3Z" transform="translate(-47.76 -307.08)"/><path class="cls-13" d="M479.52,466.88a3,3,0,0,1,3,3h0a3,3,0,0,1-3,3H452.07a3,3,0,0,1-3-3h0a3,3,0,0,1,3-3Z" transform="translate(-47.76 -307.08)"/><path class="cls-13" d="M477.72,477.87a3,3,0,0,1,0,4.22h0a3,3,0,0,1-4.22,0l-19.41-19.41a3,3,0,0,1,0-4.22h0a3,3,0,0,1,4.22,0Z" transform="translate(-47.76 -307.08)"/><path class="cls-13" d="M473.29,458.24a3,3,0,0,1,4.22,0h0a3,3,0,0,1,0,4.22L458.1,481.87a3,3,0,0,1-4.22,0h0a3,3,0,0,1,0-4.22Z" transform="translate(-47.76 -307.08)"/><circle class="cls-13" cx="418.04" cy="163.09" r="11.93"/><path class="cls-14" d="M418.74,467.62l4.43-3.44s.49-16.22,16.46-28.26c14.58-11,32.43-9.09,32.43-9.09l1.72-3.44s-22.36-2.71-37.84,9.82C417.3,448.31,418.74,467.62,418.74,467.62Z" transform="translate(-47.76 -307.08)"/><path class="cls-12" d="M467.21,456.07a1.41,1.41,0,1,1-1.41-1.42A1.41,1.41,0,0,1,467.21,456.07Z" transform="translate(-47.76 -307.08)"/><path class="cls-12" d="M477,460a1.42,1.42,0,0,1-2.83,0,1.42,1.42,0,1,1,2.83,0Z" transform="translate(-47.76 -307.08)"/><path class="cls-12" d="M481.71,470a1.42,1.42,0,1,1-1.41-1.41A1.41,1.41,0,0,1,481.71,470Z" transform="translate(-47.76 -307.08)"/><path class="cls-12" d="M477.53,480.64a1.41,1.41,0,1,1-1.41-1.42A1.41,1.41,0,0,1,477.53,480.64Z" transform="translate(-47.76 -307.08)"/><path class="cls-12" d="M467.09,484.32a1.42,1.42,0,1,1-1.41-1.41A1.42,1.42,0,0,1,467.09,484.32Z" transform="translate(-47.76 -307.08)"/><path class="cls-12" d="M457.26,480a1.42,1.42,0,1,1-1.41-1.41A1.42,1.42,0,0,1,457.26,480Z" transform="translate(-47.76 -307.08)"/><path class="cls-12" d="M453.33,470.07a1.42,1.42,0,1,1-1.41-1.41A1.41,1.41,0,0,1,453.33,470.07Z" transform="translate(-47.76 -307.08)"/><path class="cls-12" d="M457.26,460a1.42,1.42,0,0,1-2.83,0,1.42,1.42,0,1,1,2.83,0Z" transform="translate(-47.76 -307.08)"/><path class="cls-12" d="M472.35,470.16a6.55,6.55,0,1,1-6.55-6.55A6.56,6.56,0,0,1,472.35,470.16Z" transform="translate(-47.76 -307.08)"/><path class="cls-3" d="M89.79,411.59a54.47,54.47,0,0,0-8.35,19.66c-2.29,11.47-3.77,30.47-3.77,30.47H51.38s-3.13-2.62-3.55-5.9,1-28.17,3.3-29.49c1.36-.77,16.39-2,16.39-2l7.2-16.71Z" transform="translate(-47.76 -307.08)"/><path class="cls-3" d="M262.56,355.79l1.57,16.32-4.27.37s-2.78-1.61-3.56-6.76a11.09,11.09,0,0,1,2.33-9.16Z" transform="translate(-47.76 -307.08)"/><path class="cls-3" d="M257.54,362.78l-17,6.71s-4.42,2.95-3.11,5.9,6.55.92,6.55.92l15.4-10.09Z" transform="translate(-47.76 -307.08)"/><path class="cls-2" d="M422.33,308.88a10.81,10.81,0,0,0-5.9-1.8H294.23c-.49.33-4.59-.49-7.05,2.95-1.63,2.29-4.42,9.5-4.42,9.5l9.67-.33s0-3.11,1.47-4.91a9.85,9.85,0,0,1,4.1-2.62H413.69c1.4,0,3.61.21,4.05,1a39.53,39.53,0,0,1,1.8,4.75l7-.33S425,310.85,422.33,308.88Z" transform="translate(-47.76 -307.08)"/></svg>