<svg id="Camada_1" data-name="Camada 1" xmlns="http://www.w3.org/2000/svg" viewBox="0 0 577.56 195.71"><defs><style>.cls-1{fill:#2c2b26;}.cls-2{fill:#787565;}.cls-3{fill:#434139;}.cls-4{fill:#b7b29f;}.cls-5,.cls-6{fill:#969283;}.cls-15,.cls-6{opacity:0.4;}.cls-7{fill:#3193cd;}.cls-15,.cls-8{fill:#97c1bf;}.cls-9{fill:#4a483f;}.cls-10{fill:#737370;}.cls-11{fill:#46b9eb;}.cls-12{fill:#fff;}.cls-13{fill:#b52e1b;}.cls-14{fill:#e7392d;}.cls-16{fill:#646253;}</style></defs><path class="cls-1" d="M61.74,479.18l106.88,3.93L401,479.18l97.32-7.32s-.56-65.27-2.25-63.57-416.85,2.25-416.85,2.25L60.39,444.26l1.35,34.92Z" transform="translate(-7.5 -333.46)"/><path class="cls-2" d="M160.4,483.58A45.58,45.58,0,1,1,114.82,438,45.58,45.58,0,0,1,160.4,483.58Z" transform="translate(-7.5 -333.46)"/><path class="cls-3" d="M132,441.63c13.25,8,24.94,21.13,25.57,37.71.86,22.7-9.3,48.45-47.7,47.41A56.77,56.77,0,0,1,91.35,523c6.86,4.13,16.79,6.1,25.37,6.1,25.18,0,43.68-20,43.68-45.18A45.58,45.58,0,0,0,132,441.63Z" transform="translate(-7.5 -333.46)"/><path class="cls-4" d="M142.62,483.58a27.8,27.8,0,1,1-27.8-27.8A27.81,27.81,0,0,1,142.62,483.58Z" transform="translate(-7.5 -333.46)"/><path class="cls-5" d="M140.36,483.58a25.54,25.54,0,1,1-25.54-25.53A25.54,25.54,0,0,1,140.36,483.58Z" transform="translate(-7.5 -333.46)"/><path class="cls-2" d="M132.92,483.58a18.1,18.1,0,1,1-18.1-18.1A18.1,18.1,0,0,1,132.92,483.58Z" transform="translate(-7.5 -333.46)"/><path class="cls-5" d="M117.44,495.62a2.62,2.62,0,0,1-2.62,2.62h0a2.62,2.62,0,0,1-2.62-2.62V471.55a2.62,2.62,0,0,1,2.62-2.62h0a2.62,2.62,0,0,1,2.62,2.62Z" transform="translate(-7.5 -333.46)"/><path class="cls-5" d="M126.86,480.71a2.61,2.61,0,0,1,2.61,2.61h0a2.61,2.61,0,0,1-2.61,2.62H102.78a2.62,2.62,0,0,1-2.62-2.62h0a2.62,2.62,0,0,1,2.62-2.61Z" transform="translate(-7.5 -333.46)"/><path class="cls-5" d="M125.27,490.34a2.6,2.6,0,0,1,0,3.7h0a2.62,2.62,0,0,1-3.7,0l-17-17a2.63,2.63,0,0,1,0-3.71h0a2.62,2.62,0,0,1,3.7,0Z" transform="translate(-7.5 -333.46)"/><path class="cls-5" d="M121.39,473.13a2.62,2.62,0,0,1,3.7,0h0a2.62,2.62,0,0,1,0,3.7l-17,17a2.62,2.62,0,0,1-3.7,0h0a2.63,2.63,0,0,1,0-3.71Z" transform="translate(-7.5 -333.46)"/><path class="cls-5" d="M125.29,483.58a10.47,10.47,0,1,1-10.47-10.46A10.47,10.47,0,0,1,125.29,483.58Z" transform="translate(-7.5 -333.46)"/><path class="cls-6" d="M73.55,481.35l3.88-3s.43-14.22,14.44-24.78c12.79-9.65,28.45-8,28.45-8l1.5-3s-19.61-2.38-33.19,8.62C72.28,464.41,73.55,481.35,73.55,481.35Z" transform="translate(-7.5 -333.46)"/><path class="cls-4" d="M116.06,471.22a1.24,1.24,0,1,1-1.24-1.24A1.25,1.25,0,0,1,116.06,471.22Z" transform="translate(-7.5 -333.46)"/><path class="cls-4" d="M124.68,474.67a1.24,1.24,0,1,1-1.24-1.24A1.25,1.25,0,0,1,124.68,474.67Z" transform="translate(-7.5 -333.46)"/><path class="cls-4" d="M128.77,483.4a1.24,1.24,0,1,1-1.23-1.24A1.23,1.23,0,0,1,128.77,483.4Z" transform="translate(-7.5 -333.46)"/><path class="cls-4" d="M125.11,492.77a1.24,1.24,0,1,1-2.48,0,1.24,1.24,0,1,1,2.48,0Z" transform="translate(-7.5 -333.46)"/><path class="cls-4" d="M116,496a1.24,1.24,0,0,1-2.48,0,1.24,1.24,0,0,1,2.48,0Z" transform="translate(-7.5 -333.46)"/><path class="cls-4" d="M107.33,492.23a1.24,1.24,0,1,1-2.48,0,1.24,1.24,0,1,1,2.48,0Z" transform="translate(-7.5 -333.46)"/><circle class="cls-4" cx="95.14" cy="150.05" r="1.24"/><path class="cls-4" d="M107.33,474.67a1.24,1.24,0,1,1-1.24-1.24A1.24,1.24,0,0,1,107.33,474.67Z" transform="translate(-7.5 -333.46)"/><path class="cls-4" d="M120.57,483.58a5.75,5.75,0,1,1-5.75-5.74A5.75,5.75,0,0,1,120.57,483.58Z" transform="translate(-7.5 -333.46)"/><circle class="cls-2" cx="448.2" cy="480.44" r="45.58" transform="translate(-105.89 -217.63) rotate(-13.28)"/><path class="cls-3" d="M465.34,438.48c13.25,8,24.94,21.13,25.56,37.71.87,22.7-9.3,48.45-47.7,47.41a56.71,56.71,0,0,1-18.47-3.8c6.86,4.13,16.79,6.1,25.37,6.1,25.17,0,43.68-20,43.68-45.18A45.59,45.59,0,0,0,465.34,438.48Z" transform="translate(-7.5 -333.46)"/><path class="cls-4" d="M476,480.44a27.81,27.81,0,1,1-27.8-27.8A27.8,27.8,0,0,1,476,480.44Z" transform="translate(-7.5 -333.46)"/><circle class="cls-5" cx="448.2" cy="480.44" r="25.54" transform="translate(-105.33 512.43) rotate(-80.78)"/><circle class="cls-2" cx="448.2" cy="480.44" r="18.1" transform="matrix(0.16, -0.99, 0.99, 0.16, -105.33, 512.43)"/><path class="cls-5" d="M450.81,492.47a2.61,2.61,0,0,1-2.61,2.62h0a2.62,2.62,0,0,1-2.62-2.62V468.4a2.62,2.62,0,0,1,2.62-2.62h0a2.61,2.61,0,0,1,2.61,2.62Z" transform="translate(-7.5 -333.46)"/><path class="cls-5" d="M460.23,477.56a2.61,2.61,0,0,1,2.62,2.61h0a2.62,2.62,0,0,1-2.62,2.62H436.16a2.62,2.62,0,0,1-2.62-2.62h0a2.61,2.61,0,0,1,2.62-2.61Z" transform="translate(-7.5 -333.46)"/><path class="cls-5" d="M458.65,487.19a2.62,2.62,0,0,1,0,3.7h0a2.62,2.62,0,0,1-3.7,0l-17-17a2.6,2.6,0,0,1,0-3.7h0a2.6,2.6,0,0,1,3.7,0Z" transform="translate(-7.5 -333.46)"/><path class="cls-5" d="M454.77,470a2.62,2.62,0,0,1,3.7,0h0a2.62,2.62,0,0,1,0,3.7l-17,17a2.62,2.62,0,0,1-3.7,0h0a2.63,2.63,0,0,1,0-3.71Z" transform="translate(-7.5 -333.46)"/><path class="cls-5" d="M458.66,480.44A10.47,10.47,0,1,1,448.2,470,10.46,10.46,0,0,1,458.66,480.44Z" transform="translate(-7.5 -333.46)"/><path class="cls-6" d="M406.93,478.2l3.87-3s.44-14.22,14.44-24.78c12.8-9.65,28.45-8,28.45-8l1.51-3S435.59,437,422,448C405.66,461.26,406.93,478.2,406.93,478.2Z" transform="translate(-7.5 -333.46)"/><path class="cls-4" d="M449.44,468.07a1.24,1.24,0,1,1-1.24-1.24A1.25,1.25,0,0,1,449.44,468.07Z" transform="translate(-7.5 -333.46)"/><path class="cls-4" d="M458.06,471.52a1.24,1.24,0,0,1-2.48,0,1.24,1.24,0,0,1,2.48,0Z" transform="translate(-7.5 -333.46)"/><path class="cls-4" d="M462.15,480.25a1.24,1.24,0,1,1-1.24-1.24A1.24,1.24,0,0,1,462.15,480.25Z" transform="translate(-7.5 -333.46)"/><path class="cls-4" d="M458.49,489.62a1.24,1.24,0,1,1-1.24-1.24A1.24,1.24,0,0,1,458.49,489.62Z" transform="translate(-7.5 -333.46)"/><path class="cls-4" d="M449.33,492.85a1.24,1.24,0,1,1-1.24-1.24A1.24,1.24,0,0,1,449.33,492.85Z" transform="translate(-7.5 -333.46)"/><circle class="cls-4" cx="431.97" cy="155.63" r="1.24"/><path class="cls-4" d="M437.26,480.35a1.24,1.24,0,1,1-1.24-1.24A1.24,1.24,0,0,1,437.26,480.35Z" transform="translate(-7.5 -333.46)"/><circle class="cls-4" cx="431.97" cy="138.06" r="1.24"/><path class="cls-4" d="M453.94,480.44a5.75,5.75,0,1,1-5.74-5.75A5.74,5.74,0,0,1,453.94,480.44Z" transform="translate(-7.5 -333.46)"/><path class="cls-7" d="M61.74,479.18H26.3S15,472.43,15,458.36s6.22-26.44,6.22-26.44,0-12.37,13.5-21.94,24.83-18.56,69.51-20.81,56.5-2.82,56.5-2.82,55.69-47.81,70.32-48.94S383,331.22,387.46,334.6s7.88,21.38,7.88,41.63v12.94s168.2-7.88,170.45-3.38,3.94,59.07,3.94,59.07L550,464.55l-51.76,7.31s-4.48-22.53-19.13-33.19c-17.26-12.56-50.38-14.48-66.14,3-18.3,20.27-15.23,37.76-15.23,37.76l-229.16,3.72s-3.32-26.78-21.54-41.48c-14.92-12-52.71-15.33-69.59,4.05A67.46,67.46,0,0,0,61.74,479.18Z" transform="translate(-7.5 -333.46)"/><path class="cls-8" d="M235.29,345.85c-8.47,4-54.21,41.74-54.21,41.74s-3.59,3.77-1.77,6.08a8.41,8.41,0,0,0,7.6,3.09s86.63-1.12,90.29-2,9.28-7.59,9.84-9.56,1.22-36.84,0-39.38S235.29,345.85,235.29,345.85Z" transform="translate(-7.5 -333.46)"/><path class="cls-9" d="M182.77,391.58s45.74-37.72,54.21-41.74c0,0,42.61-2,50.51-.5a13.54,13.54,0,0,0-.45-3.49c-1.16-2.42-51.75,0-51.75,0-8.47,4-54.21,41.74-54.21,41.74s-3.59,3.77-1.77,6.08a8.6,8.6,0,0,0,1.35,1.35A10.24,10.24,0,0,1,182.77,391.58Z" transform="translate(-7.5 -333.46)"/><path class="cls-8" d="M307.58,347.7V385a6.12,6.12,0,0,0,2.22,5.12A11.14,11.14,0,0,0,316,392h50.92s4.05,0,5.46-2.55a6.36,6.36,0,0,0,1-4.2v-39.1s.08-3-2.61-3.72a19.68,19.68,0,0,0-5.82-.5l-48.9-.17s-3.92.3-5.67,1.42A5.79,5.79,0,0,0,307.58,347.7Z" transform="translate(-7.5 -333.46)"/><path class="cls-9" d="M311.79,390.88V353.64s0-4.85,2.82-6.66c1.75-1.13,28.7-1.74,28.7-1.74s27.7-.78,29.86-.46c0,0,.3-1.62-2.39-2.37a19.68,19.68,0,0,0-5.82-.5l-48.9-.17s-3.92.3-5.67,1.42a5.79,5.79,0,0,0-2.81,4.54V385a6.16,6.16,0,0,0,2.22,5.12,7.94,7.94,0,0,0,2,1.11C311.78,391,311.79,390.88,311.79,390.88Z" transform="translate(-7.5 -333.46)"/><path class="cls-10" d="M15.54,432.22s-9.87,3.55-7.74,20.7c2.42,19.48,7.74,26.31,7.74,26.31H40.29s.58-18.71,4.4-28.21c4.88-12.16,15.7-19.46,15.7-19.46C58.7,432.14,24.54,430.46,15.54,432.22Z" transform="translate(-7.5 -333.46)"/><path class="cls-10" d="M557.5,443.78c-4.41.71-14.71,13.71-15,15.71s3.85,13,4.42,13.27,27.42.72,28.42,0,9.71-11.7,9.71-11.7V442.64S561.93,443.07,557.5,443.78Z" transform="translate(-7.5 -333.46)"/><path class="cls-11" d="M37.84,479.23s2.52-27.2,13.49-40.42c11.82-14.24,23.07-16.17,39.1-19a119.54,119.54,0,0,1,30.66-1.13L118,422.36S99.85,420.67,82.27,429c-14.56,6.87-20.53,15.89-25,27.14a111.16,111.16,0,0,0-6.11,23.16Z" transform="translate(-7.5 -333.46)"/><path class="cls-11" d="M374.81,479.23s2.52-27.2,13.49-40.42c11.83-14.24,23.07-16.17,39.1-19a119.54,119.54,0,0,1,30.66-1.13L455,422.36s-18.15-1.69-35.73,6.61c-14.56,6.87-20.53,15.89-25,27.14a111.16,111.16,0,0,0-6.11,23.16Z" transform="translate(-7.5 -333.46)"/><polygon class="cls-11" points="553.23 72.59 155.5 76.1 156.34 68.09 553.23 57.96 553.23 72.59"/><polygon class="cls-11" points="375.18 130.92 173.22 132.64 171.53 128.84 375.18 123.69 375.18 130.92"/><polygon class="cls-11" points="561.98 109.34 489.31 112.81 486.13 109.32 561.9 103.95 561.98 109.34"/><path class="cls-11" d="M41.28,409.14,56,410.83s8.65-10.76,30.17-12.66,73.84-5.06,73.84-5.06L159,390.36s-31.85.43-63.29,2.11c-19.1,1-34.59,3.8-42.4,7.81A43.43,43.43,0,0,0,41.28,409.14Z" transform="translate(-7.5 -333.46)"/><path class="cls-8" d="M21.24,431.92H41.91s16.45-15.61,15.19-19.83-25.74-2.95-25.74-2.95a19.09,19.09,0,0,0-8.44,8.44C19.55,423.91,21.24,431.92,21.24,431.92Z" transform="translate(-7.5 -333.46)"/><path class="cls-12" d="M32.21,411.88A14.29,14.29,0,0,0,26.93,418c-1.48,3.8-1.69,11-1.69,11l5.7.21s.84-5.49,2.53-8.65A19.53,19.53,0,0,1,43,412.3Z" transform="translate(-7.5 -333.46)"/><path class="cls-13" d="M568.07,408.61s-16.74.39-18.48.39-4.33,1.73-4.33,3.9,1.3,16.05,1.73,17.79,3,3.47,6.07,3.47,16.36.4,16.36.4Z" transform="translate(-7.5 -333.46)"/><polygon class="cls-14" points="541.99 78.29 543.54 97.53 549.76 97.53 548.21 78.09 541.99 78.29"/><path class="cls-9" d="M284.51,415.33a2.53,2.53,0,0,1-2.53,2.53H266.23a2.53,2.53,0,0,1-2.53-2.53h0a2.54,2.54,0,0,1,2.53-2.54H282a2.54,2.54,0,0,1,2.53,2.54Z" transform="translate(-7.5 -333.46)"/><path class="cls-9" d="M369.46,413.08a2.54,2.54,0,0,1-2.53,2.53H351.17a2.54,2.54,0,0,1-2.53-2.53h0a2.54,2.54,0,0,1,2.53-2.54h15.76a2.54,2.54,0,0,1,2.53,2.54Z" transform="translate(-7.5 -333.46)"/><path class="cls-9" d="M301,472.87c0-.62-1.42-61.71-2.53-83.94s-2.94-49.5-3-49.77l1.69-.12c0,.28,1.84,27.55,2.95,49.8s2.52,83.37,2.53,84Z" transform="translate(-7.5 -333.46)"/><path class="cls-9" d="M183.48,475.81l-.19-.6c0-.15-4.67-14.72-11.25-22.93l-12-15,0-.32c.08-1.61,2.17-39.54,6.87-47.23s56.66-47.51,62.49-49.31,151.58-3.83,153-3.83,2.89,0,6.32,49.09c1.67,23.89,2.94,48.09,3,48.33l0,.64-.61.2s-3.61,1.62-8.76,14.7c-5.37,13.63-6.27,22.47-6.28,22.55l-.07.76h-.75Zm-21.73-39.1,11.61,14.51c6.08,7.6,10.39,20,11.35,22.88l189.76-2.93c.33-2.43,1.67-10.52,6.3-22.26,4.43-11.26,7.84-14.47,9.19-15.36-1.91-36.39-5.54-90.8-7.88-95.29-7.67.09-147,2.15-152.17,3.76-5.45,1.67-57.2,41.45-61.55,48.57S162,433,161.75,436.71Z" transform="translate(-7.5 -333.46)"/><path class="cls-15" d="M46.55,437s-21.94-3-28.27,0-8.86,7.18-7.59,12.66,5.06,20.25,5.06,20.25H22.5s-6.31-23.31-2.95-26.15c5.48-4.65,20.25-3.8,20.25-3.8Z" transform="translate(-7.5 -333.46)"/><polygon class="cls-15" points="543.66 121.67 550.84 113.65 574.04 112.81 574.46 119.98 543.66 121.67"/><path class="cls-16" d="M203.93,377.45l-3.93.77a10.61,10.61,0,0,0-2.46,6.75l-15.65,6.17s-4.42,2.95-3.11,5.89,6.55.92,6.55.92l12.85-8.42a8.23,8.23,0,0,0,3.06,4.6l4.25-.38Z" transform="translate(-7.5 -333.46)"/></svg>