<svg id="Camada_1" data-name="Camada 1" xmlns="http://www.w3.org/2000/svg" viewBox="0 0 483.36 244.72"><defs><style>.cls-1{fill:#2c2b26;}.cls-2{fill:#787565;}.cls-3{fill:#434139;}.cls-4{fill:#b7b29f;}.cls-5,.cls-6{fill:#969283;}.cls-6{opacity:0.4;}.cls-7{fill:#f18636;}.cls-8{fill:#97c1bf;}.cls-9{fill:#4a483f;}.cls-10{fill:#f7aa4b;}.cls-11{fill:#b52e1b;}.cls-12{fill:#e7392d;}.cls-13{fill:#fff;opacity:0.5;}</style></defs><polygon class="cls-1" points="478.68 162.99 421.77 125.82 64.66 121.7 18.97 159.51 6.8 188.03 21.22 211.22 138.28 212.07 236.69 167.78 357.39 215.92 472.56 199.07 478.68 162.99"/><circle class="cls-2" cx="77.59" cy="193.5" r="51.21"/><path class="cls-3" d="M141.6,440.49c14.89,9,28,23.74,28.73,42.37,1,25.51-10.45,54.44-53.6,53.28A63.83,63.83,0,0,1,96,531.87c7.7,4.64,18.86,6.85,28.5,6.85,28.29,0,49.08-22.48,49.08-50.76A51.25,51.25,0,0,0,141.6,440.49Z" transform="translate(-44.75 -294.13)"/><circle class="cls-4" cx="77.59" cy="193.5" r="31.24"/><circle class="cls-5" cx="77.59" cy="193.5" r="28.69"/><path class="cls-2" d="M142.68,487.64a20.34,20.34,0,1,1-20.34-20.34A20.34,20.34,0,0,1,142.68,487.64Z" transform="translate(-44.75 -294.13)"/><path class="cls-5" d="M125.28,501.16a2.93,2.93,0,0,1-2.94,2.94h0a2.94,2.94,0,0,1-2.94-2.94V474.11a2.94,2.94,0,0,1,2.94-2.94h0a2.94,2.94,0,0,1,2.94,2.94Z" transform="translate(-44.75 -294.13)"/><path class="cls-5" d="M135.87,484.4a2.94,2.94,0,0,1,2.94,2.94h0a2.94,2.94,0,0,1-2.94,2.94H108.82a2.93,2.93,0,0,1-2.94-2.94h0a2.94,2.94,0,0,1,2.94-2.94Z" transform="translate(-44.75 -294.13)"/><path class="cls-5" d="M134.09,495.23a2.93,2.93,0,0,1,0,4.15h0a2.94,2.94,0,0,1-4.16,0L110.8,480.25a2.93,2.93,0,0,1,0-4.15h0a2.94,2.94,0,0,1,4.16,0Z" transform="translate(-44.75 -294.13)"/><path class="cls-5" d="M129.72,475.89a2.94,2.94,0,0,1,4.16,0h0a2.94,2.94,0,0,1,0,4.16l-19.13,19.13a3,3,0,0,1-4.15,0h0a2.94,2.94,0,0,1,0-4.16Z" transform="translate(-44.75 -294.13)"/><path class="cls-5" d="M134.1,487.64a11.76,11.76,0,1,1-11.76-11.77A11.76,11.76,0,0,1,134.1,487.64Z" transform="translate(-44.75 -294.13)"/><path class="cls-6" d="M76,485.12l4.36-3.39s.48-16,16.22-27.85c14.38-10.83,32-9,32-9l1.69-3.39s-22-2.66-37.29,9.69C74.55,466.09,76,485.12,76,485.12Z" transform="translate(-44.75 -294.13)"/><path class="cls-4" d="M123.74,473.74a1.4,1.4,0,1,1-1.4-1.39A1.4,1.4,0,0,1,123.74,473.74Z" transform="translate(-44.75 -294.13)"/><path class="cls-4" d="M133.42,477.62a1.39,1.39,0,1,1-1.39-1.4A1.39,1.39,0,0,1,133.42,477.62Z" transform="translate(-44.75 -294.13)"/><path class="cls-4" d="M138,487.42a1.39,1.39,0,1,1-1.39-1.39A1.4,1.4,0,0,1,138,487.42Z" transform="translate(-44.75 -294.13)"/><path class="cls-4" d="M133.91,498a1.4,1.4,0,1,1-1.4-1.4A1.4,1.4,0,0,1,133.91,498Z" transform="translate(-44.75 -294.13)"/><path class="cls-4" d="M123.62,501.59a1.4,1.4,0,1,1-1.4-1.39A1.4,1.4,0,0,1,123.62,501.59Z" transform="translate(-44.75 -294.13)"/><path class="cls-4" d="M113.93,497.35a1.4,1.4,0,1,1-1.39-1.39A1.39,1.39,0,0,1,113.93,497.35Z" transform="translate(-44.75 -294.13)"/><path class="cls-4" d="M110.05,487.54a1.39,1.39,0,1,1-1.39-1.39A1.4,1.4,0,0,1,110.05,487.54Z" transform="translate(-44.75 -294.13)"/><path class="cls-4" d="M113.93,477.62a1.4,1.4,0,1,1-1.39-1.4A1.39,1.39,0,0,1,113.93,477.62Z" transform="translate(-44.75 -294.13)"/><path class="cls-4" d="M128.8,487.64a6.46,6.46,0,1,1-6.46-6.46A6.46,6.46,0,0,1,128.8,487.64Z" transform="translate(-44.75 -294.13)"/><circle class="cls-2" cx="412.66" cy="193.5" r="51.21"/><path class="cls-3" d="M476.67,440.49c14.89,9,28,23.74,28.73,42.37,1,25.51-10.45,54.44-53.6,53.28a63.83,63.83,0,0,1-20.75-4.27c7.7,4.64,18.86,6.85,28.5,6.85,28.29,0,49.08-22.48,49.08-50.76A51.25,51.25,0,0,0,476.67,440.49Z" transform="translate(-44.75 -294.13)"/><path class="cls-4" d="M488.65,487.64a31.24,31.24,0,1,1-31.24-31.24A31.24,31.24,0,0,1,488.65,487.64Z" transform="translate(-44.75 -294.13)"/><circle class="cls-5" cx="412.66" cy="193.5" r="28.69"/><circle class="cls-2" cx="412.66" cy="193.5" r="20.34"/><path class="cls-5" d="M460.35,501.16a2.93,2.93,0,0,1-2.94,2.94h0a2.94,2.94,0,0,1-2.94-2.94V474.11a2.94,2.94,0,0,1,2.94-2.94h0a2.94,2.94,0,0,1,2.94,2.94Z" transform="translate(-44.75 -294.13)"/><path class="cls-5" d="M470.94,484.4a2.94,2.94,0,0,1,2.94,2.94h0a2.94,2.94,0,0,1-2.94,2.94H443.88a2.94,2.94,0,0,1-2.94-2.94h0a2.94,2.94,0,0,1,2.94-2.94Z" transform="translate(-44.75 -294.13)"/><path class="cls-5" d="M469.16,495.23a2.93,2.93,0,0,1,0,4.15h0a2.94,2.94,0,0,1-4.16,0l-19.13-19.13a2.93,2.93,0,0,1,0-4.15h0a2.94,2.94,0,0,1,4.16,0Z" transform="translate(-44.75 -294.13)"/><path class="cls-5" d="M464.79,475.89a2.94,2.94,0,0,1,4.16,0h0a2.94,2.94,0,0,1,0,4.16l-19.13,19.13a3,3,0,0,1-4.16,0h0a2.94,2.94,0,0,1,0-4.16Z" transform="translate(-44.75 -294.13)"/><circle class="cls-5" cx="412.66" cy="193.5" r="11.76"/><path class="cls-6" d="M411,485.12l4.36-3.39s.48-16,16.22-27.85c14.38-10.83,32-9,32-9l1.69-3.39s-22-2.66-37.29,9.69C409.62,466.09,411,485.12,411,485.12Z" transform="translate(-44.75 -294.13)"/><path class="cls-4" d="M458.8,473.74a1.39,1.39,0,1,1-1.39-1.39A1.39,1.39,0,0,1,458.8,473.74Z" transform="translate(-44.75 -294.13)"/><path class="cls-4" d="M468.49,477.62a1.39,1.39,0,1,1-1.39-1.4A1.39,1.39,0,0,1,468.49,477.62Z" transform="translate(-44.75 -294.13)"/><path class="cls-4" d="M473.09,487.42A1.39,1.39,0,1,1,471.7,486,1.4,1.4,0,0,1,473.09,487.42Z" transform="translate(-44.75 -294.13)"/><path class="cls-4" d="M469,498a1.4,1.4,0,1,1-1.4-1.4A1.4,1.4,0,0,1,469,498Z" transform="translate(-44.75 -294.13)"/><path class="cls-4" d="M458.68,501.59a1.39,1.39,0,1,1-1.39-1.39A1.39,1.39,0,0,1,458.68,501.59Z" transform="translate(-44.75 -294.13)"/><path class="cls-4" d="M449,497.35a1.4,1.4,0,1,1-1.4-1.39A1.4,1.4,0,0,1,449,497.35Z" transform="translate(-44.75 -294.13)"/><path class="cls-4" d="M445.12,487.54a1.39,1.39,0,1,1-1.39-1.39A1.4,1.4,0,0,1,445.12,487.54Z" transform="translate(-44.75 -294.13)"/><path class="cls-4" d="M449,477.62a1.4,1.4,0,1,1-1.4-1.4A1.4,1.4,0,0,1,449,477.62Z" transform="translate(-44.75 -294.13)"/><path class="cls-4" d="M463.87,487.64a6.46,6.46,0,1,1-6.46-6.46A6.46,6.46,0,0,1,463.87,487.64Z" transform="translate(-44.75 -294.13)"/><path class="cls-7" d="M44.76,478.21c-.62-35,27.14-55.14,27.14-55.14s-.84-20.36,5.09-28,18.67-25.45,53.45-28c27.25-2,35.63-5.94,35.63-5.94s71.21-57.95,91.61-61.07c83.13-12.73,192.81-3.36,208.07,12.76,8.76,9.24,21.82,30.5,25.21,53.4,3.31,22.3-.35,48,5.09,51.75,11,7.63,20.28,20.8,26.3,32.23,8.48,16.12,5.09,39,5.09,39l-10.13,4s1.51-11.57-7.68-31.11c-13.58-28.84-49.2-40.72-84-21.21s-23.52,69.17-23.52,69.17L183,506.2s-.88-31.91-11.87-50.05c-17-28-67.87-34.78-90.77-9.33S66,505.35,66,505.35,45.26,507,44.76,478.21Z" transform="translate(-44.75 -294.13)"/><path class="cls-8" d="M170.67,374.48c-1.57,8.72,9.79,5.33,127.9-5.7C351.1,363.87,417.45,358,417.45,358s-16.4-43-32.52-51.18-65.88-5.94-87.09-3.39-50.9,13.94-65.32,24.36S171.62,369.18,170.67,374.48Z" transform="translate(-44.75 -294.13)"/><path class="cls-8" d="M71.9,423.07s-5.86-10.44,2-24.35c5.72-10.18,10.81-15.91,24.17-16.54s23.54,12.09,8.27,21.63c-15.68,9.8-34.4,19.26-34.4,19.26Z" transform="translate(-44.75 -294.13)"/><path class="cls-9" d="M346.15,305.83s3.18,14,4.45,23.54,4.46,35,4.46,35l6.36-.63s-2.55-22.27-5.09-34.36-5.73-24.17-5.73-24.17Z" transform="translate(-44.75 -294.13)"/><path class="cls-9" d="M442.22,302s-5.73.63-7.64,5.09,19.72,10.18,27.36,25.44,12.72,26.72,20.36,38.18a28.41,28.41,0,0,0,10.17,9.54s-2.54-31.17-7-40.08-10.18-19.09-7-21,16.54,1.28,12.09-3.81-17.82-10.82-27.36-12.09A188.33,188.33,0,0,0,442.22,302Z" transform="translate(-44.75 -294.13)"/><path class="cls-10" d="M137.48,392.36,467,360.55l13.36,22.9S112,414.62,113.94,414,137.48,392.36,137.48,392.36Z" transform="translate(-44.75 -294.13)"/><path class="cls-10" d="M211.91,480.15s122.15,7.64,150.78-11.45c23.94-16,39.44-49.62,39.44-49.62s-15.9,19.08-55.34,31.81S211.91,480.15,211.91,480.15Z" transform="translate(-44.75 -294.13)"/><path class="cls-1" d="M287,493.66c-1.74,0-3.5,0-5.29,0-38.87-.23-75.88-3.07-76.24-3.1h-.11l-.1,0c-.28-.09-2.83-1.13-6.54-8.87C193.92,471.58,189.17,454.4,185,432c-2.38-12.76,5.84-52.08,6.09-53.64l2.55.21c-.07.38-9.3,40.65-7,53.12,9.35,50.22,18.22,56.68,19.12,57.21,5.61.42,147.51,10.87,165.83-9.28,9.52-10.47,22.58-30.13,33.28-50.09,12-22.42,18.59-40.58,18-49.81-.59-9.69-6.49-26.5-15-42.82-8.76-16.73-17.63-27.91-23.14-29.18l.38-1.65c9,2.07,20.84,23.52,24.26,30,8.65,16.52,14.63,33.6,15.23,43.51.58,9.54-6.06,28-18.23,50.71-10.75,20.07-23.91,39.86-33.52,50.43C365.05,489.31,336.18,493.66,287,493.66Z" transform="translate(-44.75 -294.13)"/><path class="cls-11" d="M493,392.07s-17.75-.45-19.52-.45-4.44,1.78-4.44,4,1.34,16.41,1.78,18.18,3.1,3.55,6.21,3.55,18.63.45,18.63.45Z" transform="translate(-44.75 -294.13)"/><polygon class="cls-12" points="428.63 100.3 430.22 119.97 436.58 119.97 434.99 100.1 428.63 100.3"/><path class="cls-13" d="M101.26,386.51s-12.65.13-17.43,4.05c-10,8.16-10.58,24-10.58,24l6.84-1.24s3.66-12.24,7.47-16.5c5.3-5.91,20.86-6.84,20.86-6.84Z" transform="translate(-44.75 -294.13)"/><path class="cls-9" d="M385.24,306.12c-16.12-8.21-66.19-5.21-87.4-2.66s-50.9,13.94-65.32,24.36-60.9,41.36-61.85,46.66c-.28,1.53-.15,2.68.87,3.49a.74.74,0,0,0,0,.14c1.48,3.6,21.84,1.06,21.84,1.06l5.52-16.75c15.14-11.35,31.22-21.2,40.37-27.82,14.42-10.42,44.11-21.81,65.32-24.35s71-4.83,87.08,3.39a19.17,19.17,0,0,1,2.92,1.85C391.48,311.61,388.5,307.79,385.24,306.12Z" transform="translate(-44.75 -294.13)"/><path class="cls-9" d="M413.09,347.39s-28.63,3.82-26.72,12.73S422,373.29,422,373.29s-2.27-10.12-4.4-15.05C415.92,354.4,413.09,347.39,413.09,347.39Z" transform="translate(-44.75 -294.13)"/></svg>