<svg id="Camada_1" data-name="Camada 1" xmlns="http://www.w3.org/2000/svg" viewBox="0 0 516.87 152.42"><defs><style>.cls-1{fill:#2c2b26;}.cls-2{fill:#dc0c16;}.cls-3{fill:#787565;}.cls-4{fill:#434139;}.cls-5{fill:#b7b29f;}.cls-6,.cls-7{fill:#969283;}.cls-7,.cls-9{opacity:0.4;}.cls-8{fill:#97c1bf;}.cls-11,.cls-9{fill:#fff;}.cls-10{fill:#e9476d;}.cls-12{fill:#3f343a;}</style></defs><path class="cls-1" d="M41.44,470.07l-3.65-46S59,403.68,93.24,393.46,220.18,373,220.18,373s63.48-32.1,86.09-34.29,66.4-6.56,131.33,13.14S520,371.57,520,371.57l19-2.91,2.19,16.78s9.48,5.83,9.48,19.7-5.1,54-5.1,54L513.47,465s-78.05,6.86-186,8.76C119.5,477.36,41.44,470.07,41.44,470.07Z" transform="translate(-33.82 -336.74)"/><path class="cls-2" d="M541.2,385.44,539,368.66l-19,2.91s-17.51,0-82.44-19.69-108.71-15.32-131.33-13.14S220.18,373,220.18,373s-92.65,10.22-126.94,20.43S37.79,424.1,37.79,424.1l3.65,46s11.72,1.09,38.16,2.22a46.18,46.18,0,0,1-10.52-29.37c0-25.85,21.28-46.81,47.54-46.81s47.55,21,47.55,46.81c0,.06,0,.12,0,.18s0,.08,0,.12a47.13,47.13,0,0,1-11.26,31.06c43.38.65,100.78.73,174.52-.56,39.84-.7,75.61-2.08,104.88-3.54a46.13,46.13,0,0,1-8.89-27.26c0-25.85,21.29-46.81,47.55-46.81s47.54,21,47.54,46.81v.3a48.41,48.41,0,0,1-5,21.74h0l32.11-5.84s5.1-40.12,5.1-54S541.2,385.44,541.2,385.44Z" transform="translate(-33.82 -336.74)"/><circle class="cls-3" cx="471.83" cy="443.8" r="43.9" transform="translate(-82.07 493.19) rotate(-79.84)"/><path class="cls-4" d="M488.34,403.4c12.76,7.67,24,20.34,24.62,36.31.83,21.86-9,46.66-45.94,45.67a54.75,54.75,0,0,1-17.79-3.66c6.6,4,16.16,5.87,24.43,5.87,24.24,0,42.06-19.27,42.06-43.51A43.9,43.9,0,0,0,488.34,403.4Z" transform="translate(-33.82 -336.74)"/><circle class="cls-5" cx="438.01" cy="107.06" r="26.77"/><circle class="cls-6" cx="471.83" cy="443.8" r="24.59" transform="translate(-102.32 464.3) rotate(-76.72)"/><circle class="cls-3" cx="438.01" cy="107.06" r="17.43"/><path class="cls-6" d="M474.35,455.4a2.52,2.52,0,0,1-2.52,2.52h0a2.52,2.52,0,0,1-2.52-2.52V432.21a2.52,2.52,0,0,1,2.52-2.52h0a2.52,2.52,0,0,1,2.52,2.52Z" transform="translate(-33.82 -336.74)"/><path class="cls-6" d="M483.42,441a2.52,2.52,0,0,1,2.52,2.52h0a2.52,2.52,0,0,1-2.52,2.52H460.23a2.52,2.52,0,0,1-2.52-2.52h0a2.52,2.52,0,0,1,2.52-2.52Z" transform="translate(-33.82 -336.74)"/><path class="cls-6" d="M481.9,450.31a2.52,2.52,0,0,1,0,3.56h0a2.52,2.52,0,0,1-3.57,0l-16.4-16.39a2.54,2.54,0,0,1,0-3.57h0a2.54,2.54,0,0,1,3.57,0Z" transform="translate(-33.82 -336.74)"/><path class="cls-6" d="M478.15,433.73a2.53,2.53,0,0,1,3.57,0h0a2.53,2.53,0,0,1,0,3.57l-16.4,16.39a2.5,2.5,0,0,1-3.56,0h0a2.5,2.5,0,0,1,0-3.56Z" transform="translate(-33.82 -336.74)"/><path class="cls-6" d="M481.91,443.8a10.09,10.09,0,1,1-10.08-10.08A10.08,10.08,0,0,1,481.91,443.8Z" transform="translate(-33.82 -336.74)"/><path class="cls-7" d="M432.08,441.65l3.73-2.91s.42-13.7,13.91-23.87c12.32-9.28,27.4-7.68,27.4-7.68l1.45-2.9s-18.89-2.29-32,8.3C430.86,425.34,432.08,441.65,432.08,441.65Z" transform="translate(-33.82 -336.74)"/><circle class="cls-5" cx="438.01" cy="95.15" r="1.19"/><path class="cls-5" d="M481.32,435.21a1.19,1.19,0,1,1-1.19-1.19A1.19,1.19,0,0,1,481.32,435.21Z" transform="translate(-33.82 -336.74)"/><path class="cls-5" d="M485.27,443.62a1.2,1.2,0,1,1-1.2-1.19A1.19,1.19,0,0,1,485.27,443.62Z" transform="translate(-33.82 -336.74)"/><path class="cls-5" d="M481.74,452.65a1.2,1.2,0,1,1-1.2-1.19A1.19,1.19,0,0,1,481.74,452.65Z" transform="translate(-33.82 -336.74)"/><path class="cls-5" d="M472.92,455.76a1.2,1.2,0,1,1-2.39,0,1.2,1.2,0,0,1,2.39,0Z" transform="translate(-33.82 -336.74)"/><path class="cls-5" d="M464.61,452.13a1.19,1.19,0,1,1-1.19-1.19A1.19,1.19,0,0,1,464.61,452.13Z" transform="translate(-33.82 -336.74)"/><path class="cls-5" d="M461.29,443.72a1.19,1.19,0,1,1-1.19-1.19A1.19,1.19,0,0,1,461.29,443.72Z" transform="translate(-33.82 -336.74)"/><path class="cls-5" d="M464.61,435.21a1.19,1.19,0,1,1-1.19-1.19A1.19,1.19,0,0,1,464.61,435.21Z" transform="translate(-33.82 -336.74)"/><circle class="cls-5" cx="438.01" cy="107.06" r="5.53"/><circle class="cls-3" cx="116.52" cy="445.26" r="43.9" transform="translate(-365.47 213.3) rotate(-88.49)"/><path class="cls-4" d="M133,404.86c12.76,7.67,24,20.34,24.62,36.31.83,21.86-9,46.66-45.94,45.66a54.59,54.59,0,0,1-17.79-3.65c6.6,4,16.17,5.87,24.44,5.87,24.24,0,42.06-19.27,42.06-43.51A43.91,43.91,0,0,0,133,404.86Z" transform="translate(-33.82 -336.74)"/><circle class="cls-5" cx="82.7" cy="108.52" r="26.77"/><circle class="cls-6" cx="116.52" cy="445.26" r="24.59" transform="translate(-314.54 -123.93) rotate(-45)"/><circle class="cls-3" cx="116.52" cy="445.26" r="17.43" transform="translate(-195.34 -258.26) rotate(-22.5)"/><path class="cls-6" d="M119,456.86a2.52,2.52,0,0,1-2.52,2.52h0a2.52,2.52,0,0,1-2.52-2.52V433.67a2.52,2.52,0,0,1,2.52-2.52h0a2.52,2.52,0,0,1,2.52,2.52Z" transform="translate(-33.82 -336.74)"/><path class="cls-6" d="M128.12,442.49a2.52,2.52,0,0,1,2.52,2.52h0a2.52,2.52,0,0,1-2.52,2.52H104.93a2.52,2.52,0,0,1-2.52-2.52h0a2.52,2.52,0,0,1,2.52-2.52Z" transform="translate(-33.82 -336.74)"/><path class="cls-6" d="M126.59,451.77a2.5,2.5,0,0,1,0,3.56h0a2.5,2.5,0,0,1-3.56,0l-16.4-16.39a2.53,2.53,0,0,1,0-3.57h0a2.52,2.52,0,0,1,3.56,0Z" transform="translate(-33.82 -336.74)"/><path class="cls-6" d="M122.85,435.19a2.52,2.52,0,0,1,3.56,0h0a2.52,2.52,0,0,1,0,3.57L110,455.15a2.52,2.52,0,0,1-3.57,0h0a2.52,2.52,0,0,1,0-3.56Z" transform="translate(-33.82 -336.74)"/><path class="cls-6" d="M126.6,445.26a10.08,10.08,0,1,1-10.08-10.08A10.08,10.08,0,0,1,126.6,445.26Z" transform="translate(-33.82 -336.74)"/><path class="cls-7" d="M76.77,443.11l3.74-2.91s.42-13.7,13.91-23.87c12.32-9.28,27.4-7.68,27.4-7.68l1.45-2.9s-18.89-2.29-32,8.3C75.56,426.8,76.77,443.11,76.77,443.11Z" transform="translate(-33.82 -336.74)"/><path class="cls-5" d="M117.72,433.35a1.2,1.2,0,1,1-2.39,0,1.2,1.2,0,0,1,2.39,0Z" transform="translate(-33.82 -336.74)"/><path class="cls-5" d="M126,436.67a1.2,1.2,0,1,1-1.2-1.19A1.2,1.2,0,0,1,126,436.67Z" transform="translate(-33.82 -336.74)"/><circle class="cls-5" cx="94.95" cy="108.34" r="1.19"/><path class="cls-5" d="M126.43,454.11a1.19,1.19,0,1,1-1.19-1.19A1.19,1.19,0,0,1,126.43,454.11Z" transform="translate(-33.82 -336.74)"/><path class="cls-5" d="M117.61,457.22a1.19,1.19,0,1,1-1.19-1.19A1.19,1.19,0,0,1,117.61,457.22Z" transform="translate(-33.82 -336.74)"/><path class="cls-5" d="M109.31,453.59a1.2,1.2,0,1,1-1.19-1.19A1.19,1.19,0,0,1,109.31,453.59Z" transform="translate(-33.82 -336.74)"/><path class="cls-5" d="M106,445.18A1.2,1.2,0,1,1,104.8,444,1.2,1.2,0,0,1,106,445.18Z" transform="translate(-33.82 -336.74)"/><path class="cls-5" d="M109.31,436.67a1.2,1.2,0,1,1-1.19-1.19A1.19,1.19,0,0,1,109.31,436.67Z" transform="translate(-33.82 -336.74)"/><circle class="cls-5" cx="116.52" cy="445.26" r="5.53" transform="translate(-375.47 152.21) rotate(-80.78)"/><path class="cls-1" d="M221,372.72s16.92,7.29,28,7.58,133.9-3.79,142.65-6.71,27.71-16.34,27.71-16.34-22.75-9.91-58.63-12.83-67.1-3.5-67.1-3.5a149.33,149.33,0,0,0-32.67,11.67C244.89,360.76,221,372.72,221,372.72Z" transform="translate(-33.82 -336.74)"/><path class="cls-8" d="M223.62,371.45s15.35,6,25.77,6.26,125.8-3.42,134-6,26-14.72,26-14.72-21.37-8.94-55.08-11.57-64.17-3.6-64.17-3.6a126.93,126.93,0,0,0-30.29,10.89C243.1,361.17,223.62,371.45,223.62,371.45Z" transform="translate(-33.82 -336.74)"/><polygon class="cls-9" points="263.24 5.28 203.81 39.12 213.6 40.98 276.69 5.88 263.24 5.28"/><polygon class="cls-9" points="232.42 40.7 287.4 6.44 290.3 6.61 243.6 40.39 232.42 40.7"/><path class="cls-10" d="M151.24,388.35l40.86,29.19s23.34-11.68,96.3-19.7c45.33-5,191.15-15.32,191.15-15.32L451.83,373s-214.5,15.32-216.69,15.32h-83.9Z" transform="translate(-33.82 -336.74)"/><path class="cls-10" d="M420.45,400.76c-1.78,1.46-13.86,22.61-29.91,32.1s-129.13,22.62-129.13,22.62L252.65,462l159-8s-.73-17.51,8.75-33.56,29.92-27,29.92-27H438A34.86,34.86,0,0,0,420.45,400.76Z" transform="translate(-33.82 -336.74)"/><path class="cls-8" d="M67,425c-1.15-4.16-29.23-.87-29.23-.87s-4,1-4,11.85c0,7,5.83,14.6,5.83,14.6l13.35-1S68.18,429.18,67,425Z" transform="translate(-33.82 -336.74)"/><path class="cls-11" d="M40,426.5s-3.45,5.2-3.85,7.73,1.06,11.15,1.06,11.15L41,445s-1.51-7.64-.18-10.51c2.4-5.18,10.27-9.29,10.27-9.29Z" transform="translate(-33.82 -336.74)"/><path class="cls-12" d="M41.44,470.14s11.72,1.09,38.16,2.22a46.32,46.32,0,0,1-9.35-19H40.11Z" transform="translate(-33.82 -336.74)"/><path class="cls-12" d="M152.91,474.35c43.39.65,100.79.73,174.53-.56,39.84-.7,75.6-2.08,104.88-3.54a46.23,46.23,0,0,1-7.72-16.93H163.16A46.22,46.22,0,0,1,152.91,474.35Z" transform="translate(-33.82 -336.74)"/><path class="cls-12" d="M517.51,453.32a47.39,47.39,0,0,1-4,11.71h0l32.1-5.84s.29-2.25.72-5.87Z" transform="translate(-33.82 -336.74)"/><path class="cls-1" d="M227.84,454l-.6,0c-.73-.08-1.41-.68-2.12-1.87-4.45-7.42-10.4-39.63-7.72-46.31,3-7.44,92.32-61.76,96.12-64.07l.76,1.24c-25.79,15.66-93.21,57.57-95.53,63.37-2.52,6.31,3.45,38.06,7.62,45,.67,1.11,1,1.17,1,1.17,1.95.21,35.2-1.85,70.75-4.87,63-5.34,70.4-8.26,71.17-9,5.28-5.28,23.06-39.05,20.73-47.44s-20.29-15-20.47-15.08l-.58-.21,5.47-28.82,1.43.27L370.67,375c3.24,1.27,18.5,7.61,20.78,15.84,2.51,9-15.58,43.34-21.1,48.86-2.42,2.42-26.67,5.6-72.08,9.45C265.41,451.9,233,454,227.84,454Z" transform="translate(-33.82 -336.74)"/><path class="cls-1" d="M438.74,365c1.25,3.12-1.46,7.15-6.07,9s-9.36.85-10.62-2.27,1.46-7.14,6.07-9S437.48,361.89,438.74,365Z" transform="translate(-33.82 -336.74)"/><polygon class="cls-1" points="505.19 31.91 494.59 46.95 507.38 48.7 505.19 31.91"/></svg>